<?xml version="1.0" encoding="UTF-8" standalone="no"?><!DOCTYPE svg PUBLIC "-//W3C//DTD SVG 1.1//EN" "http://www.w3.org/Graphics/SVG/1.1/DTD/svg11.dtd"><svg width="100%" height="100%" viewBox="0 0 1200 1200" version="1.1" xmlns="http://www.w3.org/2000/svg" xmlns:xlink="http://www.w3.org/1999/xlink" xml:space="preserve" xmlns:serif="http://www.serif.com/" style="fill-rule:evenodd;clip-rule:evenodd;stroke-linejoin:round;stroke-miterlimit:1.41421;"><g><path d="M0,1199.99c0,-399.997 0,-799.994 0,-1199.99l1199.99,0c0,399.997 0,799.994 0,1199.99l-1199.99,0Zm289.768,-606.256l298.167,299.588c0.428,-0.342 0.839,-0.706 1.23,-1.09c34.4,-39.88 68.796,-79.766 103.19,-119.659c41.393,-48 82.776,-96.033 124.149,-144.099c36.839,-42.726 73.696,-85.436 110.569,-128.129c41.399,-48 82.786,-96.033 124.159,-144.099c38.139,-44.239 76.296,-88.466 114.469,-132.679c12.39,-14.36 11.86,-34.609 -1.62,-48.119c-51.986,-52.133 -104.043,-104.2 -156.169,-156.199c-13.89,-13.84 -34.66,-14.46 -49.53,-1.84c-11.139,9.5 -22.139,19.13 -33.139,28.66c-36.527,31.453 -73.046,62.886 -109.559,94.299c-35.547,30.666 -71.073,61.333 -106.58,91.999c-39.613,34.147 -79.232,68.28 -118.859,102.399c-41.879,36.1 -83.756,72.21 -125.629,108.33c-45.093,38.873 -90.189,77.736 -135.289,116.589l-39.559,34.049Zm265.478,333.308l-298.588,-298.558c-0.495,0.318 -0.963,0.676 -1.4,1.07c-33.173,32.746 -66.333,65.5 -99.479,98.259c-6.44,6.37 -9.45,14.23 -9.53,23.25c-0.11,11.43 3.61,22.06 6.84,32.8c5.81,19.31 12.31,38.42 15.16,58.539c4.86,34.38 -4.11,65 -24.39,92.67c-6.11,8.32 -13.1,16 -19.51,23.749l98.999,99c1.35,-1.26 2.88,-2.71 4.42,-4.14c18.76,-17.38 40.26,-29.64 65.37,-35.32c25.529,-5.78 50.839,-4 75.999,2.15c16.81,4.14 33.46,8.92 50.25,13.11c15.27,3.8 28.289,0.75 39.849,-11.11c30.62,-31.42 61.9,-62.18 92.95,-93.179c0.959,-0.841 1.982,-1.607 3.06,-2.29Zm-552.376,152.478c50.62,15 100.629,29.84 150.619,44.74c1.745,0.667 3.733,0.156 4.94,-1.27c7.5,-7.32 15.13,-14.52 22.62,-21.86c3,-2.93 5.69,-6.13 8.36,-9l-98.86,-98.889l-87.679,86.279Z" style="fill:#fff;fill-rule:nonzero;"/><path d="M289.768,593.735l39.559,-34.049c45.1,-38.86 90.196,-77.723 135.289,-116.589c41.88,-36.107 83.756,-72.217 125.629,-108.33c39.613,-34.146 79.23,-68.282 118.849,-102.409c35.54,-30.666 71.067,-61.333 106.58,-91.999c36.493,-31.453 73.002,-62.886 109.529,-94.299c11.07,-9.53 22,-19.17 33.169,-28.62c14.87,-12.62 35.64,-12 49.53,1.84c52.14,51.999 104.196,104.049 156.169,156.149c13.48,13.51 14,33.759 1.62,48.119c-38.14,44.247 -76.29,88.48 -114.449,132.699c-41.4,48 -82.786,96.033 -124.159,144.099c-36.84,42.726 -73.696,85.436 -110.569,128.129c-41.4,48 -82.783,96.033 -124.149,144.099c-34.394,39.9 -68.797,79.789 -103.21,119.669c-0.391,0.384 -0.802,0.748 -1.23,1.09l-298.157,-299.598Z" style="fill:#ebf300;fill-rule:nonzero;"/><path d="M982.475,8.417l0.206,0.001l0.206,0.003l0.206,0.004l0.206,0.006l0.206,0.006l0.206,0.008l0.206,0.009l0.205,0.011l0.206,0.011l0.206,0.013l0.206,0.013l0.205,0.016l0.206,0.016l0.205,0.017l0.205,0.019l0.206,0.02l0.205,0.021l0.205,0.022l0.205,0.024l0.204,0.025l0.205,0.026l0.205,0.027l0.204,0.028l0.205,0.03l0.204,0.031l0.204,0.032l0.204,0.033l0.204,0.035l0.203,0.035l0.204,0.037l0.203,0.038l0.203,0.039l0.203,0.041l0.203,0.042l0.203,0.043l0.202,0.044l0.202,0.045l0.202,0.047l0.202,0.048l0.202,0.049l0.202,0.05l0.201,0.051l0.201,0.053l0.201,0.054l0.2,0.055l0.201,0.056l0.2,0.057l0.2,0.059l0.199,0.06l0.2,0.061l0.199,0.062l0.199,0.064l0.199,0.065l0.198,0.066l0.198,0.067l0.198,0.068l0.198,0.07l0.197,0.07l0.197,0.072l0.197,0.074l0.196,0.074l0.196,0.076l0.196,0.076l0.196,0.079l0.195,0.079l0.195,0.08l0.194,0.082l0.194,0.083l0.194,0.084l0.194,0.085l0.193,0.087l0.193,0.088l0.192,0.089l0.193,0.09l0.191,0.091l0.192,0.093l0.191,0.093l0.191,0.095l0.19,0.097l0.19,0.097l0.189,0.099l0.19,0.1l0.188,0.101l0.189,0.102l0.188,0.103l0.187,0.105l0.187,0.106l0.187,0.107l0.186,0.108l0.186,0.11l0.186,0.111l0.184,0.112l0.185,0.113l0.184,0.114l0.184,0.116l0.183,0.116l0.183,0.118l0.182,0.12l0.182,0.12l0.181,0.122l0.181,0.123l0.18,0.124l0.18,0.125l0.179,0.126l0.179,0.128l0.179,0.129l0.177,0.13l0.178,0.131l0.177,0.133l0.176,0.134l0.176,0.135l0.175,0.136l0.175,0.137l0.174,0.139l0.174,0.14l0.173,0.141l0.172,0.142l0.172,0.143l0.172,0.145l0.17,0.146l0.171,0.147l0.169,0.148l0.17,0.15l0.168,0.15l0.168,0.152l0.167,0.153l0.167,0.155l0.166,0.155l0.166,0.157l0.165,0.158l0.164,0.159l0.164,0.16l0.163,0.162l9.775,9.75l9.774,9.752l9.771,9.753l9.769,9.754l9.768,9.755l9.765,9.756l9.763,9.758l9.762,9.759l9.76,9.76l9.757,9.761l9.756,9.762l9.754,9.763l9.751,9.765l9.75,9.766l9.748,9.767l9.746,9.768l0.157,0.158l0.156,0.159l0.155,0.16l0.154,0.161l0.153,0.161l0.151,0.161l0.151,0.163l0.149,0.163l0.147,0.163l0.147,0.164l0.146,0.164l0.144,0.166l0.143,0.165l0.142,0.166l0.141,0.167l0.139,0.168l0.139,0.168l0.137,0.168l0.136,0.169l0.135,0.169l0.134,0.17l0.132,0.171l0.131,0.171l0.13,0.172l0.129,0.172l0.128,0.172l0.127,0.173l0.125,0.174l0.124,0.174l0.123,0.175l0.122,0.175l0.12,0.175l0.12,0.176l0.118,0.177l0.117,0.176l0.116,0.178l0.115,0.178l0.113,0.178l0.112,0.179l0.112,0.179l0.109,0.179l0.109,0.18l0.108,0.181l0.106,0.181l0.105,0.181l0.104,0.182l0.103,0.182l0.102,0.183l0.1,0.182l0.1,0.184l0.098,0.184l0.096,0.184l0.096,0.184l0.095,0.185l0.093,0.185l0.092,0.186l0.091,0.186l0.09,0.186l0.089,0.187l0.087,0.187l0.086,0.187l0.085,0.188l0.084,0.188l0.083,0.188l0.081,0.189l0.08,0.189l0.08,0.19l0.078,0.189l0.076,0.19l0.076,0.191l0.074,0.19l0.073,0.191l0.072,0.191l0.071,0.192l0.07,0.191l0.068,0.192l0.068,0.193l0.066,0.192l0.065,0.193l0.063,0.193l0.063,0.194l0.061,0.193l0.06,0.194l0.059,0.194l0.058,0.195l0.057,0.194l0.055,0.195l0.054,0.195l0.053,0.195l0.052,0.196l0.051,0.195l0.049,0.196l0.049,0.196l0.047,0.197l0.046,0.196l0.044,0.197l0.044,0.196l0.042,0.197l0.042,0.198l0.04,0.197l0.038,0.198l0.038,0.197l0.037,0.198l0.035,0.198l0.034,0.198l0.033,0.198l0.032,0.199l0.03,0.198l0.029,0.199l0.029,0.199l0.027,0.199l0.025,0.199l0.025,0.199l0.023,0.199l0.023,0.2l0.021,0.199l0.02,0.2l0.018,0.199l0.018,0.2l0.016,0.2l0.015,0.2l0.014,0.2l0.013,0.2l0.012,0.2l0.01,0.2l0.009,0.2l0.008,0.2l0.007,0.201l0.006,0.2l0.004,0.2l0.004,0.201l0.002,0.2l0.001,0.201l0,0.2l-0.002,0.2l-0.002,0.201l-0.004,0.2l-0.005,0.201l-0.006,0.2l-0.008,0.201l-0.008,0.2l-0.01,0.201l-0.011,0.2l-0.012,0.2l-0.013,0.201l-0.015,0.2l-0.015,0.2l-0.017,0.2l-0.018,0.201l-0.019,0.2l-0.021,0.2l-0.021,0.2l-0.023,0.2l-0.024,0.199l-0.025,0.2l-0.026,0.2l-0.028,0.199l-0.028,0.2l-0.03,0.199l-0.031,0.2l-0.032,0.199l-0.034,0.199l-0.034,0.199l-0.036,0.199l-0.037,0.198l-0.038,0.199l-0.039,0.198l-0.041,0.199l-0.041,0.198l-0.043,0.198l-0.044,0.198l-0.045,0.197l-0.047,0.198l-0.047,0.197l-0.049,0.198l-0.05,0.197l-0.051,0.197l-0.053,0.196l-0.053,0.197l-0.055,0.196l-0.056,0.196l-0.057,0.196l-0.058,0.196l-0.059,0.195l-0.061,0.196l-0.062,0.195l-0.062,0.195l-0.065,0.194l-0.065,0.195l-0.066,0.194l-0.068,0.194l-0.069,0.193l-0.07,0.194l-0.071,0.193l-0.073,0.193l-0.073,0.192l-0.075,0.193l-0.076,0.192l-0.077,0.192l-0.078,0.191l-0.08,0.191l-0.081,0.191l-0.081,0.191l-0.083,0.19l-0.085,0.191l-0.085,0.189l-0.087,0.19l-0.087,0.189l-0.089,0.189l-0.091,0.188l-0.091,0.188l-0.092,0.188l-0.094,0.188l-0.095,0.187l-0.096,0.186l-0.097,0.187l-0.099,0.186l-0.099,0.186l-0.101,0.185l-0.102,0.185l-0.103,0.184l-0.104,0.185l-0.106,0.183l-0.107,0.184l-0.107,0.183l-0.109,0.183l-0.111,0.182l-0.111,0.182l-0.113,0.181l-0.113,0.181l-0.115,0.18l-0.117,0.181l-0.117,0.179l-0.118,0.18l-0.12,0.178l-0.121,0.179l-0.122,0.178l-0.123,0.177l-0.125,0.177l-0.125,0.177l-0.127,0.176l-0.128,0.176l-0.129,0.175l-0.13,0.174l-0.132,0.175l-0.132,0.173l-0.134,0.173l-0.135,0.173l-0.137,0.172l-0.137,0.172l-0.139,0.171l-0.139,0.171l-0.141,0.17l-0.142,0.17l-0.144,0.169l-0.144,0.168l-14.303,16.592l-14.304,16.59l-14.305,16.59l-14.305,16.588l-14.307,16.586l-14.307,16.586l-14.309,16.584l-14.309,16.583l-15.525,18.002l-15.523,18.004l-15.521,18.008l-15.521,18.011l-15.519,18.014l-15.518,18.017l-15.517,18.02l-15.515,18.023l-13.816,16.022l-13.817,16.02l-13.819,16.018l-13.82,16.017l-13.822,16.015l-13.824,16.014l-13.825,16.012l-13.826,16.011l-7.763,9l-7.762,9.001l-7.761,9.002l-7.761,9.003l-7.761,9.003l-7.76,9.005l-7.76,9.005l-7.759,9.005l-7.76,9.007l-7.758,9.007l-7.759,9.009l-7.758,9.008l-7.757,9.01l-7.757,9.011l-7.757,9.011l-7.756,9.012l-12.898,14.962l-12.899,14.961l-12.9,14.96l-12.901,14.959l-12.901,14.958l-12.903,14.957l-12.903,14.957l-12.905,14.955l-0.147,0.143l-0.15,0.141l-0.151,0.139l-0.153,0.138l-0.155,0.135l-0.156,0.133l-0.158,0.132l-0.16,0.129l-298.157,-299.598l39.559,-34.049l33.825,-29.146l33.822,-29.146l33.822,-29.148l33.82,-29.149l31.409,-27.081l31.408,-27.082l31.407,-27.082l31.405,-27.085l14.855,-12.804l14.856,-12.804l14.855,-12.802l14.856,-12.802l14.857,-12.8l14.856,-12.8l14.857,-12.799l14.857,-12.798l13.327,-11.5l13.326,-11.5l13.324,-11.5l13.323,-11.499l13.322,-11.5l13.32,-11.5l13.32,-11.5l13.318,-11.5l13.685,-11.794l13.687,-11.792l13.689,-11.79l13.691,-11.789l13.692,-11.786l13.693,-11.785l13.695,-11.783l13.697,-11.78l1.037,-0.894l1.037,-0.894l1.036,-0.895l1.035,-0.896l2.069,-1.792l2.068,-1.793l2.066,-1.794l2.066,-1.794l2.066,-1.794l2.067,-1.794l2.068,-1.793l2.07,-1.792l1.035,-0.895l1.036,-0.894l1.037,-0.894l1.038,-0.894l1.039,-0.892l1.039,-0.892l1.041,-0.892l1.041,-0.89l1.043,-0.89l1.044,-0.888l1.045,-0.888l1.046,-0.886l0.175,-0.147l0.175,-0.146l0.176,-0.145l0.176,-0.144l0.176,-0.142l0.178,-0.142l0.177,-0.14l0.178,-0.138l0.179,-0.138l0.179,-0.136l0.18,-0.136l0.18,-0.134l0.181,-0.132l0.181,-0.132l0.181,-0.13l0.183,-0.129l0.182,-0.128l0.183,-0.127l0.184,-0.125l0.184,-0.125l0.184,-0.123l0.185,-0.121l0.185,-0.121l0.186,-0.119l0.186,-0.119l0.186,-0.117l0.187,-0.115l0.188,-0.115l0.187,-0.113l0.189,-0.112l0.188,-0.111l0.189,-0.11l0.19,-0.109l0.189,-0.107l0.191,-0.106l0.19,-0.105l0.191,-0.103l0.191,-0.103l0.192,-0.101l0.192,-0.1l0.192,-0.099l0.193,-0.097l0.193,-0.097l0.194,-0.095l0.193,-0.094l0.195,-0.093l0.194,-0.091l0.195,-0.091l0.195,-0.089l0.195,-0.088l0.196,-0.086l0.196,-0.086l0.196,-0.084l0.197,-0.083l0.197,-0.082l0.197,-0.081l0.197,-0.079l0.198,-0.078l0.198,-0.077l0.199,-0.076l0.198,-0.074l0.199,-0.074l0.199,-0.072l0.199,-0.071l0.2,-0.07l0.2,-0.068l0.2,-0.067l0.2,-0.067l0.201,-0.064l0.201,-0.064l0.2,-0.062l0.202,-0.062l0.201,-0.06l0.202,-0.059l0.202,-0.057l0.202,-0.057l0.202,-0.055l0.202,-0.054l0.203,-0.052l0.202,-0.052l0.203,-0.05l0.203,-0.049l0.204,-0.048l0.203,-0.047l0.204,-0.046l0.203,-0.044l0.204,-0.043l0.204,-0.042l0.205,-0.04l0.204,-0.04l0.204,-0.038l0.205,-0.037l0.204,-0.036l0.205,-0.034l0.205,-0.034l0.205,-0.032l0.205,-0.031l0.205,-0.03l0.206,-0.028l0.205,-0.028l0.206,-0.026l0.205,-0.025l0.206,-0.023l0.205,-0.023l0.206,-0.021l0.206,-0.02l0.206,-0.019l0.206,-0.017l0.206,-0.017l0.206,-0.015l0.206,-0.014l0.206,-0.013l0.206,-0.011l0.206,-0.011l0.206,-0.009l0.206,-0.008l0.207,-0.007l0.206,-0.005l0.206,-0.004l0.206,-0.003l0.206,-0.002l0.206,-0.001l0.207,0.001Zm-0.36,8.5l-0.157,0.001l-0.156,0.002l-0.156,0.004l-0.156,0.004l-0.157,0.005l-0.156,0.006l-0.156,0.007l-0.157,0.008l-0.156,0.008l-0.156,0.01l-0.157,0.011l-0.156,0.011l-0.156,0.013l-0.156,0.013l-0.157,0.014l-0.156,0.016l-0.156,0.016l-0.156,0.017l-0.157,0.018l-0.156,0.019l-0.156,0.02l-0.156,0.02l-0.156,0.022l-0.156,0.023l-0.156,0.023l-0.156,0.025l-0.156,0.025l-0.156,0.026l-0.155,0.028l-0.156,0.028l-0.156,0.029l-0.155,0.03l-0.156,0.031l-0.155,0.032l-0.155,0.032l-0.156,0.034l-0.155,0.035l-0.155,0.036l-0.155,0.036l-0.155,0.038l-0.155,0.038l-0.155,0.039l-0.155,0.041l-0.154,0.041l-0.155,0.042l-0.154,0.043l-0.155,0.044l-0.154,0.045l-0.154,0.046l-0.154,0.047l-0.154,0.048l-0.153,0.049l-0.154,0.049l-0.153,0.051l-0.154,0.051l-0.153,0.053l-0.153,0.053l-0.153,0.055l-0.153,0.055l-0.153,0.057l-0.152,0.057l-0.152,0.058l-0.153,0.059l-0.152,0.061l-0.152,0.061l-0.152,0.062l-0.151,0.063l-0.152,0.064l-0.151,0.065l-0.151,0.065l-0.151,0.067l-0.151,0.068l-0.15,0.069l-0.15,0.069l-0.151,0.071l-0.15,0.072l-0.149,0.072l-0.151,0.074l-0.149,0.075l-0.149,0.075l-0.149,0.077l-0.149,0.077l-0.148,0.079l-0.149,0.08l-0.148,0.08l-0.148,0.081l-0.148,0.083l-0.147,0.083l-0.148,0.085l-0.147,0.085l-0.146,0.086l-0.147,0.087l-0.146,0.089l-0.146,0.089l-0.147,0.091l-0.145,0.091l-0.145,0.092l-0.146,0.094l-0.145,0.094l-0.143,0.095l-0.145,0.096l-0.145,0.098l-0.143,0.098l-0.143,0.099l-0.144,0.101l-0.142,0.101l-0.143,0.102l-0.143,0.104l-0.142,0.104l-0.142,0.106l-0.141,0.106l-0.141,0.107l-0.141,0.109l-0.14,0.109l-0.141,0.111l-0.14,0.111l-0.139,0.113l-0.139,0.113l-0.139,0.115l-0.139,0.116l-0.151,0.127l-1.036,0.878l-1.037,0.881l-1.037,0.882l-1.036,0.884l-1.035,0.885l-1.034,0.886l-1.034,0.887l-1.034,0.888l-1.033,0.889l-1.032,0.891l-1.032,0.891l-1.032,0.891l-2.064,1.787l-2.064,1.789l-2.064,1.792l-2.065,1.793l-2.067,1.795l-2.068,1.796l-2.072,1.797l-2.074,1.796l-1.039,0.899l-1.04,0.898l-1.041,0.898l-1.042,0.898l-13.699,11.782l-13.694,11.782l-13.692,11.784l-13.691,11.786l-13.69,11.787l-13.688,11.79l-13.686,11.791l-13.682,11.791l-13.315,11.497l-13.32,11.501l-13.321,11.5l-13.322,11.5l-13.323,11.5l-13.325,11.5l-13.326,11.5l-13.329,11.503l-14.86,12.8l-14.857,12.799l-14.856,12.799l-14.856,12.801l-14.856,12.801l-14.855,12.802l-14.855,12.803l-14.854,12.804l-31.405,27.084l-31.407,27.083l-31.408,27.082l-31.41,27.081l-33.821,29.149l-33.822,29.148l-33.823,29.147l-33.826,29.147l-32.635,28.09l285.397,286.776l7.988,-9.257l12.903,-14.956l12.902,-14.957l12.902,-14.957l12.9,-14.959l12.899,-14.96l12.899,-14.96l12.895,-14.959l7.755,-9.01l7.757,-9.012l7.757,-9.011l7.758,-9.01l7.759,-9.009l7.758,-9.009l7.759,-9.008l7.76,-9.007l7.76,-9.006l7.76,-9.005l7.761,-9.005l7.761,-9.004l7.761,-9.003l7.762,-9.002l7.762,-9.002l7.765,-9.002l13.828,-16.013l13.824,-16.011l13.823,-16.013l13.821,-16.015l13.82,-16.016l13.818,-16.018l13.817,-16.02l13.813,-16.018l15.514,-18.021l15.517,-18.021l15.519,-18.018l15.52,-18.015l15.521,-18.011l15.522,-18.009l15.524,-18.005l15.526,-18.003l14.31,-16.584l14.308,-16.583l14.307,-16.585l14.306,-16.587l14.305,-16.587l14.305,-16.589l14.303,-16.59l14.295,-16.583l0.122,-0.142l0.112,-0.132l0.111,-0.133l0.111,-0.134l0.109,-0.133l0.108,-0.133l0.107,-0.134l0.108,-0.137l0.105,-0.134l0.104,-0.134l0.104,-0.136l0.103,-0.136l0.101,-0.137l0.1,-0.135l0.099,-0.136l0.099,-0.137l0.098,-0.138l0.097,-0.138l0.095,-0.137l0.094,-0.137l0.095,-0.14l0.093,-0.139l0.091,-0.138l0.09,-0.138l0.09,-0.14l0.09,-0.14l0.087,-0.138l0.087,-0.141l0.086,-0.141l0.085,-0.14l0.084,-0.141l0.084,-0.142l0.081,-0.14l0.082,-0.142l0.079,-0.14l0.08,-0.143l0.079,-0.143l0.076,-0.141l0.077,-0.143l0.076,-0.143l0.075,-0.144l0.073,-0.142l0.072,-0.142l0.072,-0.144l0.071,-0.145l0.069,-0.142l0.07,-0.145l0.068,-0.145l0.067,-0.144l0.066,-0.145l0.066,-0.146l0.063,-0.143l0.064,-0.146l0.063,-0.146l0.061,-0.145l0.06,-0.146l0.06,-0.147l0.059,-0.144l0.057,-0.145l0.057,-0.147l0.056,-0.147l0.056,-0.148l0.053,-0.145l0.053,-0.146l0.053,-0.15l0.052,-0.148l0.05,-0.146l0.049,-0.146l0.049,-0.148l0.047,-0.146l0.047,-0.149l0.046,-0.149l0.045,-0.146l0.044,-0.149l0.043,-0.149l0.043,-0.15l0.041,-0.147l0.04,-0.147l0.04,-0.149l0.039,-0.15l0.037,-0.149l0.037,-0.148l0.035,-0.147l0.036,-0.153l0.034,-0.148l0.033,-0.147l0.032,-0.151l0.032,-0.15l0.031,-0.15l0.029,-0.148l0.028,-0.148l0.028,-0.151l0.027,-0.151l0.027,-0.15l0.025,-0.149l0.023,-0.148l0.024,-0.154l0.023,-0.148l0.021,-0.148l0.021,-0.154l0.02,-0.149l0.018,-0.148l0.018,-0.151l0.017,-0.151l0.017,-0.149l0.015,-0.151l0.014,-0.152l0.014,-0.148l0.013,-0.152l0.011,-0.148l0.011,-0.152l0.01,-0.151l0.009,-0.149l0.008,-0.149l0.007,-0.151l0.007,-0.151l0.005,-0.152l0.005,-0.151l0.004,-0.149l0.003,-0.149l0.002,-0.151l0.001,-0.151l0,-0.149l-0.001,-0.149l-0.002,-0.151l-0.002,-0.154l-0.003,-0.148l-0.005,-0.149l-0.005,-0.151l-0.006,-0.148l-0.007,-0.151l-0.008,-0.151l-0.008,-0.149l-0.01,-0.15l-0.01,-0.151l-0.012,-0.148l-0.012,-0.151l-0.013,-0.148l-0.014,-0.148l-0.015,-0.153l-0.016,-0.151l-0.016,-0.147l-0.018,-0.148l-0.018,-0.148l-0.02,-0.15l-0.02,-0.153l-0.021,-0.147l-0.022,-0.147l-0.023,-0.15l-0.023,-0.147l-0.025,-0.15l-0.026,-0.149l-0.026,-0.147l-0.028,-0.15l-0.028,-0.149l-0.029,-0.146l-0.03,-0.149l-0.031,-0.147l-0.031,-0.146l-0.034,-0.151l-0.033,-0.149l-0.034,-0.145l-0.035,-0.146l-0.036,-0.146l-0.038,-0.148l-0.038,-0.148l-0.039,-0.148l-0.04,-0.147l-0.041,-0.145l-0.041,-0.145l-0.043,-0.147l-0.043,-0.147l-0.044,-0.145l-0.045,-0.144l-0.046,-0.146l-0.048,-0.147l-0.048,-0.146l-0.048,-0.144l-0.05,-0.143l-0.051,-0.148l-0.051,-0.143l-0.052,-0.143l-0.054,-0.146l-0.055,-0.145l-0.054,-0.142l-0.056,-0.142l-0.058,-0.147l-0.057,-0.142l-0.059,-0.142l-0.061,-0.146l-0.06,-0.141l-0.061,-0.142l-0.063,-0.143l-0.062,-0.141l-0.065,-0.142l-0.066,-0.143l-0.065,-0.14l-0.068,-0.142l-0.067,-0.14l-0.069,-0.142l-0.071,-0.141l-0.07,-0.14l-0.072,-0.141l-0.072,-0.138l-0.074,-0.141l-0.074,-0.138l-0.076,-0.14l-0.076,-0.14l-0.077,-0.138l-0.079,-0.139l-0.078,-0.137l-0.081,-0.139l-0.08,-0.137l-0.082,-0.138l-0.084,-0.138l-0.083,-0.136l-0.085,-0.138l-0.085,-0.135l-0.088,-0.137l-0.088,-0.137l-0.088,-0.134l-0.089,-0.135l-0.09,-0.135l-0.092,-0.136l-0.092,-0.134l-0.094,-0.135l-0.095,-0.134l-0.095,-0.133l-0.095,-0.132l-0.098,-0.134l-0.099,-0.134l-0.098,-0.131l-0.101,-0.133l-0.102,-0.132l-0.101,-0.131l-0.103,-0.13l-0.104,-0.132l-0.106,-0.131l-0.105,-0.129l-0.108,-0.131l-0.109,-0.13l-0.108,-0.129l-0.109,-0.128l-0.112,-0.129l-0.112,-0.129l-0.113,-0.127l-0.114,-0.128l-0.116,-0.127l-0.115,-0.127l-0.117,-0.125l-0.118,-0.127l-0.12,-0.126l-0.119,-0.125l-0.121,-0.124l-0.123,-0.125l-0.132,-0.134l-9.737,-9.758l-9.747,-9.766l-9.749,-9.765l-9.75,-9.764l-9.753,-9.762l-9.755,-9.761l-9.757,-9.761l-9.758,-9.758l-9.761,-9.758l-9.762,-9.757l-9.765,-9.755l-9.766,-9.754l-9.768,-9.754l-9.771,-9.751l-9.772,-9.751l-9.765,-9.74l-0.136,-0.135l-0.129,-0.127l-0.129,-0.125l-0.13,-0.124l-0.131,-0.124l-0.13,-0.122l-0.132,-0.122l-0.131,-0.12l-0.132,-0.119l-0.132,-0.118l-0.134,-0.118l-0.133,-0.116l-0.132,-0.115l-0.134,-0.114l-0.135,-0.114l-0.134,-0.111l-0.135,-0.112l-0.135,-0.11l-0.135,-0.109l-0.136,-0.108l-0.136,-0.107l-0.137,-0.106l-0.136,-0.105l-0.138,-0.104l-0.137,-0.103l-0.138,-0.102l-0.138,-0.101l-0.138,-0.1l-0.139,-0.099l-0.139,-0.098l-0.139,-0.097l-0.14,-0.096l-0.14,-0.095l-0.14,-0.094l-0.14,-0.093l-0.142,-0.093l-0.141,-0.091l-0.141,-0.09l-0.142,-0.089l-0.141,-0.088l-0.143,-0.087l-0.143,-0.087l-0.142,-0.085l-0.143,-0.084l-0.143,-0.083l-0.144,-0.083l-0.144,-0.081l-0.144,-0.081l-0.144,-0.079l-0.144,-0.078l-0.145,-0.078l-0.146,-0.077l-0.145,-0.075l-0.145,-0.075l-0.146,-0.073l-0.146,-0.073l-0.147,-0.072l-0.146,-0.071l-0.146,-0.07l-0.148,-0.069l-0.147,-0.068l-0.147,-0.067l-0.147,-0.066l-0.148,-0.065l-0.148,-0.064l-0.148,-0.063l-0.149,-0.063l-0.148,-0.061l-0.149,-0.06l-0.149,-0.06l-0.15,-0.059l-0.149,-0.057l-0.149,-0.057l-0.15,-0.056l-0.15,-0.054l-0.15,-0.054l-0.15,-0.053l-0.151,-0.052l-0.151,-0.051l-0.15,-0.05l-0.152,-0.05l-0.15,-0.048l-0.152,-0.047l-0.151,-0.047l-0.152,-0.045l-0.152,-0.045l-0.152,-0.043l-0.152,-0.043l-0.152,-0.042l-0.152,-0.041l-0.153,-0.039l-0.153,-0.04l-0.152,-0.038l-0.154,-0.037l-0.153,-0.036l-0.153,-0.035l-0.153,-0.035l-0.154,-0.033l-0.153,-0.033l-0.154,-0.031l-0.154,-0.031l-0.154,-0.03l-0.154,-0.029l-0.154,-0.028l-0.154,-0.027l-0.155,-0.026l-0.154,-0.025l-0.155,-0.024l-0.154,-0.023l-0.155,-0.023l-0.155,-0.021l-0.155,-0.021l-0.155,-0.02l-0.155,-0.018l-0.155,-0.018l-0.155,-0.017l-0.156,-0.016l-0.155,-0.015l-0.156,-0.014l-0.155,-0.014l-0.156,-0.012l-0.155,-0.011l-0.156,-0.011l-0.156,-0.01l-0.156,-0.008l-0.156,-0.008l-0.156,-0.007l-0.155,-0.006l-0.157,-0.005l-0.156,-0.004l-0.156,-0.003l-0.156,-0.002l-0.156,-0.002l-0.156,0l-0.156,0.001Z"/><path d="M555.246,927.043c-1.078,0.687 -2.101,1.456 -3.06,2.3c-31,30.999 -62.33,61.759 -92.95,93.179c-11.55,11.86 -24.579,14.91 -39.849,11.11c-16.8,-4.19 -33.44,-9 -50.25,-13.11c-25.14,-6.18 -50.45,-7.93 -75.999,-2.15c-25.11,5.68 -46.61,17.93 -65.37,35.32c-1.54,1.43 -3.07,2.88 -4.42,4.14l-98.999,-99c6.41,-7.759 13.41,-15.429 19.51,-23.749c20.28,-27.62 29.25,-58.29 24.39,-92.67c-2.85,-20.119 -9.35,-39.219 -15.16,-58.539c-3.23,-10.74 -6.94,-21.37 -6.84,-32.8c0.08,-9 3.09,-16.89 9.53,-23.25c33.133,-32.779 66.293,-65.533 99.479,-98.259c0.437,-0.394 0.905,-0.752 1.4,-1.07l298.588,298.548Z" style="fill-rule:nonzero;"/><path d="M2.87,1079.52l87.679,-86.279l98.85,98.849c-2.67,2.9 -5.38,6.1 -8.36,9c-7.48,7.35 -15.11,14.54 -22.62,21.86c-1.207,1.426 -3.195,1.937 -4.94,1.27c-49.98,-14.86 -99.989,-29.68 -150.609,-44.7Z" style="fill:#ebf300;fill-rule:nonzero;"/></g></svg>