<svg id="Ebene_1" data-name="Ebene 1" xmlns="http://www.w3.org/2000/svg" width="423.33mm" height="423.33mm" viewBox="0 0 1200 1200">
  <defs>
    <style>
      .cls-1 {
        fill: #fff;
      }
    </style>
  </defs>
  <title>icon-mask</title>
  <g>
    <path class="cls-1" d="M360.75,1140.75q0-600,0-1200h1200q0,600,0,1200ZM650.52,534.49,948.69,834.08a16.25,16.25,0,0,0,1.23-1.09q51.6-59.82,103.19-119.66,62.09-72,124.15-144.1,55.26-64.09,110.57-128.13,62.1-72,124.16-144.1,57.21-66.36,114.47-132.68c12.39-14.36,11.86-34.61-1.62-48.12Q1446.86,38,1368.67-40c-13.89-13.84-34.66-14.46-49.53-1.84C1308-32.34,1297-22.71,1286-13.18Q1231.21,34,1176.44,81.12q-53.32,46-106.58,92Q1010.44,224.34,951,275.52q-62.82,54.15-125.63,108.33-67.64,58.31-135.29,116.59ZM916,867.8,617.41,569.24a10.93,10.93,0,0,0-1.4,1.07q-49.76,49.12-99.48,98.26c-6.44,6.37-9.45,14.23-9.53,23.25-.11,11.43,3.61,22.06,6.84,32.8,5.81,19.31,12.31,38.42,15.16,58.54,4.86,34.38-4.11,65-24.39,92.67-6.11,8.32-13.1,16-19.51,23.75l99,99c1.35-1.26,2.88-2.71,4.42-4.14,18.76-17.38,40.26-29.64,65.37-35.32,25.53-5.78,50.84-4,76,2.15,16.81,4.14,33.46,8.92,50.25,13.11,15.27,3.8,28.29.75,39.85-11.11,30.62-31.42,61.9-62.18,92.95-93.18A24.86,24.86,0,0,1,916,867.8ZM363.62,1020.28c50.62,15,100.63,29.84,150.62,44.74a4.41,4.41,0,0,0,4.94-1.27c7.5-7.32,15.13-14.52,22.62-21.86,3-2.93,5.69-6.13,8.36-9L451.3,934Z" transform="translate(-360.75 59.25)"/>
    <path d="M650.52,534.49l39.56-34.05q67.65-58.29,135.29-116.59Q888.19,329.69,951,275.52q59.42-51.22,118.85-102.41,53.31-46,106.58-92,54.74-47.18,109.53-94.3c11.07-9.53,22-19.17,33.17-28.62,14.87-12.62,35.64-12,49.53,1.84q78.21,78,156.17,156.15c13.48,13.51,14,33.76,1.62,48.12Q1469.24,230.67,1412,297q-62.1,72-124.16,144.1-55.26,64.09-110.57,128.13-62.1,72-124.15,144.1Q1001.53,773.18,949.91,833a16.25,16.25,0,0,1-1.23,1.09Z" transform="translate(-360.75 59.25)"/>
    <path d="M916,867.8a24.86,24.86,0,0,0-3.06,2.3c-31,31-62.33,61.76-92.95,93.18-11.55,11.86-24.58,14.91-39.85,11.11-16.8-4.19-33.44-9-50.25-13.11-25.14-6.18-50.45-7.93-76-2.15-25.11,5.68-46.61,17.93-65.37,35.32-1.54,1.43-3.07,2.88-4.42,4.14l-99-99c6.41-7.76,13.41-15.43,19.51-23.75,20.28-27.62,29.25-58.29,24.39-92.67-2.85-20.12-9.35-39.22-15.16-58.54-3.23-10.74-6.94-21.37-6.84-32.8.08-9,3.09-16.89,9.53-23.25q49.7-49.17,99.48-98.26a10.93,10.93,0,0,1,1.4-1.07Z" transform="translate(-360.75 59.25)"/>
    <path d="M363.62,1020.28,451.3,934l98.85,98.85c-2.67,2.9-5.38,6.1-8.36,9-7.48,7.35-15.11,14.54-22.62,21.86a4.41,4.41,0,0,1-4.94,1.27C464.25,1050.12,414.24,1035.3,363.62,1020.28Z" transform="translate(-360.75 59.25)"/>
  </g>
</svg>
